<?xml version="1.0" standalone="no"?>
<!DOCTYPE svg PUBLIC "-//W3C//DTD SVG 20010904//EN"
 "http://www.w3.org/TR/2001/REC-SVG-20010904/DTD/svg10.dtd">
<svg version="1.0" xmlns="http://www.w3.org/2000/svg"
 width="260.000000pt" height="260.000000pt" viewBox="0 0 260.000000 260.000000"
 preserveAspectRatio="xMidYMid meet">
<metadata>
Created by potrace 1.14, written by Peter Selinger 2001-2017
</metadata>
<g transform="translate(0.000000,260.000000) scale(0.100000,-0.100000)"
fill="#000000" stroke="none">
<path d="M1738 1920 c-182 -39 -326 -147 -409 -304 -174 -331 -69 -846 207
-1013 124 -75 330 -105 494 -72 135 27 280 131 348 251 30 52 86 188 80 193
-4 4 -166 45 -177 45 -5 0 -12 -15 -15 -32 -9 -51 -60 -149 -101 -195 -103
-119 -320 -153 -482 -77 -58 28 -153 108 -153 130 0 8 -4 14 -9 14 -15 0 -59
121 -75 206 -19 101 -15 276 9 369 37 146 109 244 221 299 72 36 125 45 229
43 80 -2 98 -6 157 -35 78 -38 123 -87 168 -183 l30 -65 85 20 c52 13 85 26
85 34 0 7 -14 42 -30 79 -30 66 -79 134 -135 185 -32 30 -156 96 -193 103 -13
2 -32 7 -43 10 -45 15 -216 12 -291 -5z"/>
<path d="M225 1911 c-3 -2 -5 -312 -5 -688 l0 -683 430 0 430 0 0 83 0 82
-338 0 -337 0 -1 597 c0 329 -4 601 -8 605 -8 8 -164 12 -171 4z"/>
</g>
</svg>
